<?xml version="1.0" encoding="UTF-8"?>
<!DOCTYPE svg PUBLIC "-//W3C//DTD SVG 1.1//EN" "http://www.w3.org/Graphics/SVG/1.1/DTD/svg11.dtd">
<!-- Creator: CorelDRAW 2020 (64-Bit) -->
<svg xmlns="http://www.w3.org/2000/svg" xml:space="preserve" width="3.12533in" height="3.51056in" version="1.1" style="shape-rendering:geometricPrecision; text-rendering:geometricPrecision; image-rendering:optimizeQuality; fill-rule:evenodd; clip-rule:evenodd"
viewBox="0 0 496.68 557.9"
 xmlns:xlink="http://www.w3.org/1999/xlink"
 xmlns:xodm="http://www.corel.com/coreldraw/odm/2003">
 <defs>
  <style type="text/css">
   <![CDATA[
    .fil0 {fill:black}
    .fil11 {fill:#020202}
    .fil16 {fill:#060000}
    .fil13 {fill:#090100}
    .fil15 {fill:#0A0201}
    .fil19 {fill:#110000}
    .fil21 {fill:#150000}
    .fil9 {fill:#649A3A}
    .fil4 {fill:#659B3B}
    .fil22 {fill:#699A36}
    .fil10 {fill:#699A3B}
    .fil26 {fill:#7B7B7B}
    .fil27 {fill:#898989}
    .fil25 {fill:#AC3029}
    .fil20 {fill:#D3352A}
    .fil3 {fill:#E52B1C}
    .fil23 {fill:#EB2D25}
    .fil17 {fill:#EC2B1D}
    .fil6 {fill:#F92C1B}
    .fil18 {fill:#F9ED53}
    .fil14 {fill:#FAF647}
    .fil24 {fill:#FAFC58}
    .fil12 {fill:#FBFA3A}
    .fil8 {fill:#FC2A1A}
    .fil5 {fill:#FCF837}
    .fil7 {fill:#FCF936}
    .fil2 {fill:#FD1800}
    .fil1 {fill:#FEFEFE}
   ]]>
  </style>
 </defs>
 <g id="PowerClip_x0020_Contents">
  <metadata id="CorelCorpID_0Corel-Layer"/>
  <g id="_1597711373536">
   <path class="fil0" d="M132.45 207.98c0.26,-1.6 0.31,-0.59 0.98,-1.04 -0.03,1.44 -0.15,1.43 -0.44,2.64 -0.05,0.21 -0.61,5.99 -1.05,7.07 -1.33,-0.14 -0.36,-0.35 -1.56,-1.06l-1.34 1.25c-1.58,-0.54 -3.5,-0.33 -5.18,-0.4l0.51 -0.41c0.02,-0.04 0.06,-0.12 0.09,-0.16 0.02,-0.04 0.05,-0.15 0.07,-0.18 0.02,-0.04 0.06,-0.13 0.06,-0.2l-0.52 -0.18c-0.98,-0.17 0.35,-0.06 -0.52,-0.09 -1.3,-0.05 -1.2,0.54 -2.15,0.59 -0.84,0.04 -0.92,-0.14 -1.25,-0.4 0.61,-1.02 0.91,-0.52 1.59,-0.91 0.79,-0.46 0.3,-0.02 0.56,-1.21 0.02,-0.09 0.02,-0.15 0.04,-0.24 0.44,-1.81 0.47,-0.47 0.76,-2.11 0.22,-1.22 0.18,-1.1 0.77,-2.19 1.37,0.04 0.58,0.01 0.77,0.15l2.21 -5.75 4.55 -12.97 4.35 -12.72 9.87 0.19 4.03 12.96c0.09,0.64 0.07,0.4 0.25,1.03 0.05,0.19 0.18,0.59 0.29,1l2 6.33 1.39 4.75 1.46 3.91c0.37,2.2 1.96,5.33 1.93,7.25 -1.32,-0.3 -2.99,-0.17 -4.42,-0.19 -2.2,-0.03 -3.1,0.56 -3.46,-1.37 -0.74,-1.2 -1.29,-4.68 -2.06,-6.23 -3.04,-0.26 -11.94,0.21 -13.98,-0.48 -0.15,0.44 -0.27,1.03 -0.59,1.39zm37.3 -14.85l13.48 0.27 -0.08 6.66 -13.5 -0.18 -0.29 14.98 -7.5 -0.04 0.14 -10.56 0.24 -13.54 0.24 -12.75 23.75 0.4 -0.14 6.88 -16.15 -0.28 -0.18 8.15zm86.01 -0.05c-0.37,5.23 -0.92,7.24 0.41,12.37 2.86,5.12 5.1,5.8 12.05,4.91l2.36 -1.63c0.75,-0.61 1.48,-1.74 2.36,-2.18 1.17,0.56 5.15,3.61 5.66,4.39 -0.72,1.2 -1.92,2.49 -2.94,3.21l1.58 -0.37c1.14,-2.72 1.62,-1.65 1.68,-2.57 -0.08,-0.93 -0.28,-0.39 -0.54,-1.03 -0.02,-0.04 -0.05,-0.12 -0.06,-0.16 -0.01,-0.04 -0.03,-0.12 -0.03,-0.17l0.29 -0.87c1.77,0.24 0.14,0.9 2.33,1.07 0.09,-2.02 -0.12,-0.96 -0.4,-1.41 -0.09,-0.14 -0.9,0.13 -0.2,-1.08 0.79,0.21 0.28,0.57 1.19,0.86 0.49,0.16 0.27,0.17 0.6,-0 0.94,-0.49 0.22,-0.5 0.65,-2.49 0.07,-0.35 0.12,-0.83 0.78,-1.09 0.03,0.08 -0.01,1.04 0.24,1.45 0.03,-1.7 0.27,-1.46 1.35,-1.56l2.49 -6.67 1.7 -4.98 3.56 -10.62 0.71 -1.86c1.61,-0.65 7.79,-0.17 9.95,-0.02l3.91 12.87 1.03 3.38c0.32,0.78 0.35,0.55 0.21,1.33l0.89 1.95c0.2,0.72 0.4,1.41 0.64,2.18 0.44,1.42 0.93,2.82 1.3,4.27 0.46,0.84 3.34,9.99 3.39,11.05l-7.54 -0.11 -0.67 -1.76c-0.87,-0.35 -0.93,-0.24 -1.8,-0.28 0.01,-0.03 0.07,-0.38 0.06,-0.44 -0.11,-0.63 0.11,-0.15 -0.28,-0.64l-0.72 -0.48c-0.03,-0.01 -0.12,-0.01 -0.14,-0.01 -0.05,-0.01 -0.28,0.04 -0.28,0.04l0.1 -2c-0.58,0.18 -1.29,0.01 -0.71,0.51 0.01,-0.65 0.02,-0.61 0.63,-1.31 0.11,-0.13 0.28,-0.92 0.72,-0.52l-11.35 0.58c-0.35,-0.48 0.71,-0.15 -0.44,-0.22 -0.65,-0.04 -1.07,-0.27 -1.69,1.6 -0.08,0.25 -0.33,2.06 -1.58,2.24l0.04 0.48c0.51,2.29 -0.38,2.15 -0.38,2.15 -0.01,0.01 -0.48,0.27 -0.52,0.29 0.12,0.86 0.38,0.95 -0.05,1.73 -1,-0.35 -0.45,-0.56 -1.03,-1.58 -9.57,1 -6.15,-1.84 -7.09,-2.96l-1.73 -0.28c-0.07,-0 -0.15,0.01 -0.22,0.01l-0.47 0.05c-0.84,0.07 -0.57,-0.09 -1.37,0.17l-1.68 1.09c-0.89,0.71 -0.75,0.92 -2.47,0.51 -1.47,-0.08 -2.4,0.93 -4.12,0.53 -1.1,0.83 -6.27,0.34 -7.47,0.18 -2.22,-0.29 -4.2,-1.03 -5.89,-2.06 -3.91,-2.39 -4.9,-4.73 -6.51,-9.3 -1.24,-4.54 -0.66,-8.81 -0.19,-13.55 1.27,-7.24 5.33,-11.74 12.33,-12.94 6.5,-1.12 15.8,0.82 18.18,6.56 -0.66,0.69 -5.06,4.06 -5.82,4.35 -0.97,-0.79 -1.5,-2.45 -3.59,-3.5 -1.8,-0.91 -4.13,-1.18 -6.34,-0.88 -6.07,0.84 -6.32,6.25 -7.04,7.23zm-18.68 12.58l-0.09 4.55 4.9 0.18c0.35,1.27 0.19,4.5 -0.01,5.87l-17.77 -0.18c-0.09,-0.02 -0.2,-0.17 -0.25,-0.1l-2.34 -0.15c-2.2,1.06 0.26,1.22 -3.42,0.8 -0.73,-0.08 -1.51,0.01 -2.29,0.01 -0.79,-0 -1.59,-0.02 -2.38,-0.04l-1.75 -0.17c-1.3,-0.36 -2.4,-3.34 -2.4,-3.35l0.16 -0.82c-0.16,-1.04 -3.64,-5.71 -4.29,-7.18 -1.07,-0.51 -1.08,-1.65 -1.94,-2.27 -1.28,-0.29 -3.06,-0.63 -3.37,0.19 -0.72,1.97 1.56,0.03 0.3,1.84 -0.03,0.05 -0.17,0.2 -0.21,0.28 -0.64,-0.32 -0.35,0.47 -0.52,-0.69 -0.05,2.74 0.28,9.71 -0.48,11.62 -1.32,0.2 -2.76,0.01 -4.22,0.01 -1.89,-0 -3.04,0.4 -3.96,-0.66 -0.03,-0.06 -0.06,-0.23 -0.06,-0.19 -0.01,0.03 -0.05,-0.15 -0.06,-0.2l0.15 -10.67c1.03,-0.01 0.26,-0.48 0.62,0.37l0.17 0.08c-0.66,-1.93 0.03,-10.9 0.02,-13.67l0.23 -12.66c5.68,0.23 14.31,-0.32 19.33,0.93 6.07,1.52 8.06,5.31 7.52,12.29 -0.36,3.6 -1.6,6.04 -3.64,7.67 -0.57,0.35 -0.97,0.69 -1.7,1.02 -0.68,0.31 -1.63,0.53 -2.22,0.87 0.31,0.74 0.43,0.61 0.57,1.4 0.77,0.54 1.42,1.58 1.76,2.55 1.37,0.86 2.22,3.58 3.3,4.43 2.25,0.11 -0.02,-0.23 1.4,0.98 0.48,-0.98 -0.05,-0.35 0.68,-0.88 1.39,0.64 1.06,-0.05 1.08,1.14l0.6 -0.63c0.35,-0.34 -0.07,-0.09 0.43,-0.38 1.07,0.65 0.83,0.53 1.41,1.34 0.05,0.07 0.11,0.15 0.15,0.21 0.04,0.06 0.1,0.15 0.16,0.22 0.06,-0.85 -0.17,-1.33 0.38,-1.51 0.27,1.21 -0.11,2.73 -0.04,3.48l0.37 1.13c-0.01,-0.91 -0.07,-1.83 -0.08,-2.73 -0.01,-0.45 -0.05,-0.88 0.13,-1.3 0.56,-1.3 0.18,-0.57 0.86,-0.82 1.23,0.42 3.55,0.36 5,0.12l0.14 -4.47 0.25 -13.66 0.12 -6.85 -5.14 -0.13 0.12 -5.72 17.83 0.24 -0.09 5.78 -5.06 -0.03 -0.36 20.51zm-156.76 -36.58c-0.01,-0.22 0.06,-2.28 0.08,-2.41 0.21,-0.94 0.22,-0.75 1.27,-0.78 2.84,-0.07 6.11,0.14 9,0.19 77.42,1.42 154.84,2.84 232.26,4.26 11.66,0.21 23.95,0.07 35.62,0.69l-0.18 4.39 -274.9 -5.04c-2.03,-0.04 -3.1,0.59 -3.15,-1.31zm153.58 -46.52l7.97 0.16 -0.47 31.7 16.26 0.32 -0.15 7.26 -24.34 -0.47 0.73 -38.97zm-103.89 -1.91l10.32 0.26 12.11 39.15 -8.1 -0.17 -2.51 -7.93 -14.89 -0.27 -2.67 7.86 -7.94 -0.18 13.67 -38.72zm28.12 0.51l10.41 0.19c0.66,1.91 2.2,4.62 3.13,6.55 1.62,3.38 8.42,18.34 9.52,19.56l0.49 -25.88 7.81 0.23 -0.74 38.9 -9.42 -0.16c-1.15,-2.89 -5.08,-10.59 -6.71,-13.91l-6.7 -13.67c-0.64,1.22 -0.51,23.65 -0.7,27.33l-7.8 -0.14 0.7 -39.01zm-74.12 -1.26c2.85,-0.42 9.78,0.08 13.05,0.14 3.99,0.08 8.19,0.41 11.11,2.23 2.62,1.63 4.06,5 3.17,9.38 -0.96,4.7 -3.73,5.31 -6.44,6.46 0.96,0.73 3.06,0.53 5.33,2.38 4.79,3.92 3.78,12.43 -0.41,15.61 -2.96,2.25 -7.26,3.02 -11.9,2.97 -3.52,-0.04 -11.64,0.2 -14.65,-0.37l0.74 -38.8zm179.13 3.19l25.32 0.48 -0.17 7.04 -17.34 -0.27 -0.12 8.21 14.6 0.37 -0.12 6.97 -14.63 -0.26 -0.17 9.31 17.35 0.31 -0.14 7.3 -25.35 -0.45 0.77 -39.01zm70.15 29.29c2.01,1.84 2.84,4.79 9.14,4.92 6.33,0.14 8.25,-3.54 6.41,-6.51 -2.17,-3.5 -14.72,-3.58 -18.74,-9.12 -3.73,-5.13 -2.52,-15.1 7.02,-17.37 3.79,-0.9 8.8,-0.72 12.4,0.5 2.88,0.97 6.94,3.71 7.47,6.42 -1.94,0.87 -4.11,3.36 -5.97,4.23 -1.66,-1.41 -2.98,-5.02 -9.42,-4.61 -6.15,0.39 -6.5,5.19 -3.23,7 5.53,3.07 15.31,2.31 18.41,9.72 1.46,3.49 0.9,8.68 -0.95,11.46 -4.71,7.06 -18.75,6.95 -25.68,1.52 -0.85,-0.67 -2.68,-2.59 -2.91,-3.84 1.11,-0.8 5.11,-3.97 6.06,-4.31zm-34.45 -0.72c4.55,8.39 19.53,5.24 15.4,-1.45 -2.19,-3.56 -14.37,-3.57 -18.84,-9.28 -2.07,-2.65 -2.34,-7.48 -0.86,-11.06 4.24,-10.25 23.94,-8.04 27.85,0.36 -0.7,0.96 -5.63,4.44 -6.2,4.6 -3.7,-6.37 -12.74,-5.39 -14.08,-2.2 -3.44,8.13 15.82,4.32 20.07,14.34 1.43,3.38 0.9,8.62 -0.97,11.38 -4.33,6.41 -15.27,6.35 -21.25,4.09 -2.86,-1.09 -6.64,-3.76 -7.41,-6.43 1.97,-0.97 4.23,-3.54 6.28,-4.34zm-100.95 -29.77l7.93 0.26 -0.26 14.74c0.66,-0.34 0.11,-0.01 0.57,-0.39 0.06,-0.05 0.24,-0.22 0.3,-0.28 2.2,-2.23 11.37,-13.67 12.46,-13.9 0.77,-0.16 7.86,0.06 8.87,0.19l-7.27 8.16c-1.35,1.54 -6.65,7.17 -7.34,8.36 1,1.87 2.58,3.99 3.81,5.78l7.42 10.99c1,1.48 3.19,4.38 3.67,5.66l-9.91 -0.23c-0.52,-1.09 -9.78,-15.79 -10.51,-16.2 -2.94,2.54 -2.29,3.37 -2.35,7.04 -0.05,2.94 -0.07,5.91 -0.18,8.95l-7.95 -0.23 0.74 -38.9zm-104.88 -92.52c-0.53,-0.99 -1.51,-3.11 -1.81,-4.24 -0.81,0.37 -1.48,1.15 -2.07,1.77l-18 19.2c-0.94,0.97 -0.8,1.36 -1.1,2.87 -0.83,4.28 -1.72,8.44 -2.58,12.63 -0.85,4.16 -3.04,6.57 -5.12,10.03 -0.66,1.1 -2.07,3.73 -2.86,4.56 -1.29,1.36 -11.13,8.35 -12.94,9.68 -2.79,2.07 -4.78,5.41 -6.8,8.28 -4.16,5.88 -8.53,11.64 -12.62,17.53 -1.27,1.83 -15.46,20.97 -15.38,21.99 0.03,0.43 1.78,4.81 2.05,5.5 2.32,5.87 1.91,6.44 2.3,12.59 0.38,5.99 -0.13,5.66 -2.82,11.91 -2.67,6.2 -3.08,5.24 -2.35,11.67 1.01,8.96 2.1,17.79 3.05,26.6 0.37,3.49 0.57,2.69 2.81,4.53 1.41,1.17 2.74,2.27 4.22,3.44 3.21,2.55 5.29,4.08 7.55,7.51 0.97,1.48 5.09,8.36 5.9,9.07 1.5,1.31 8.08,3.28 10.29,4.83 3.02,2.12 5.51,4.5 8.33,6.73 4.25,3.34 8.15,6.88 12.44,10.03 7.17,5.26 2.41,4.31 17.78,2.97 4.76,-0.41 9.16,-1.31 13.33,-0.08 1.97,0.58 3.74,1.13 5.75,1.71 3.48,1.01 2.86,0.95 6.38,0.03l35.62 -8.97c3.75,-0.93 8.15,-2.28 11.93,-2.95 1.81,1.5 5.46,7.19 7.16,9.45 2.28,3.04 1.55,2.23 6.07,2.49 2.3,0.14 14.36,0.44 15.69,1.14 1.43,0.76 3.5,2.46 4.98,3.48 2.44,1.68 7.96,5.14 9.93,6.95 -0.33,2.87 -4.84,14.25 -5.99,18.18 -0.59,1.99 -0.71,8.62 -0.89,11.16 -0.35,5.16 -0.15,3.69 3.64,8.02 4.66,5.33 9.62,10.2 14.31,15.46 1.09,1.22 2.07,1.86 2.6,3.48 0.94,2.86 2.12,5.9 3.04,8.95 0.89,2.92 0.43,6.72 1.54,10.18l5.75 18.04c2.51,7.99 2.29,7.35 1.83,15.4 -0.14,2.51 0.15,3.34 -1.12,5.11l-7.43 10.85c-1.46,2.06 -2.47,12.71 -2.88,15.51 -1.03,7.15 -2.05,14.14 -3.13,21.23 -0.61,4.04 0.15,3.32 3.57,7.77l10.45 13.49c2.88,3.63 2.31,4.41 3.06,8.94 1.13,6.84 2.28,13.72 3.41,20.57 0.56,3.37 1.11,6.67 1.66,10.04 0.28,1.71 0.56,3.4 0.83,5.12 0.42,2.64 7.63,17.45 9.11,20.76 6.58,14.74 7.43,14.93 11.88,29.98 0.25,0.84 0.41,1.37 0.67,2.22 0.12,0.39 0.22,0.83 0.35,1.21 0.1,0.3 0.1,0.32 0.22,0.58 0.16,0.33 0.18,0.37 0.33,0.57 6.28,0.13 16.98,-0.74 23.76,-1.06 12.42,-0.59 9.51,-0.53 20.89,-4.1 10.54,-3.3 7.24,-2.22 15.41,-9.79l6.52 -6.14c1.56,-1.46 1.41,-1.72 2.25,-4.11 0.88,-2.5 2.05,-7.34 3.8,-8.95l6.45 -6.21c3.54,-3.27 3.83,-2.82 5.31,-7.39 1.59,-4.92 2.77,-9.8 4.53,-14.67 0.51,-1.42 2.04,-2.42 3.05,-3.27l13.5 -11.79c1.77,-1.77 1.52,-0.69 2.43,-3.91 0.52,-1.82 2.75,-8.74 2.67,-10.09 -1.06,-0.87 -1.65,-1.54 -2.63,-2.35l-8.28 -7.61c0.48,-1.21 4.43,-4.83 5.54,-6.13 1.82,-2.13 3.9,-4 5.74,-6.14 1.64,-1.92 4.91,-3.06 7.33,-4.21l11.89 -5.69c2.55,-1.22 9.66,-8.62 12.26,-11.18 1.29,-1.28 1.96,-1.23 2.42,-3.66 0.95,-4.99 6.19,-28.05 5.61,-29.98 -0.72,-2.36 -2.49,-5.77 -3.46,-8.08 -1.2,-2.84 -6.69,-14.39 -6.78,-16.49 -0.24,-5.74 0.23,-11.88 0.33,-17.66 0.05,-3.1 -0.17,-2.7 1.04,-5.04 1.27,-2.44 2.83,-5.36 4.16,-7.77 1.41,-2.56 2.7,-5.01 4.08,-7.62 4.11,-7.79 5.31,-7.72 10.26,-13.25 3.75,-4.19 7.32,-8.2 11.32,-12.17 3.91,-3.88 7.51,-8.57 11.41,-12.35 3.89,-3.78 7.42,-8.42 11.32,-12.17 1.18,-1.13 1.6,-1.77 2.82,-2.98 3.04,-3.02 5.58,-6.31 8.62,-9.32 1.23,-1.22 1.63,-1.85 2.82,-2.98 3.4,-3.26 10.11,-11.11 14.26,-15.3 3.18,-3.21 2.71,-4.03 3.57,-8.37 0.48,-2.43 1.85,-7.94 1.82,-10.02 -1.61,-0.61 -1.13,-0.86 -2.78,-0.13l-8.24 3.55c-3.77,1.52 -7.43,3.15 -11.01,4.7 -4.76,2.06 -7.97,1.69 -13.56,2.06 -2.46,0.16 -4.9,0.3 -7.27,0.47 -6.11,0.44 -4.51,0.5 -10.8,-4.52 -1.59,-1.27 -3.04,-2.18 -3.96,-3.93 -1.85,-3.53 -3.56,-6.94 -5.4,-10.36 -1.85,-3.45 -5.27,-5.02 -8.44,-7.4 -3.98,-2.98 -9.49,-2.25 -12.36,-3.91 -0.83,-4.03 0.07,-11.28 -0.83,-15.14 -0.46,-1.99 -10.13,-17.3 -12.01,-20.62 -1.31,-2.3 -1.91,-2.53 -2.13,-6 -0.19,-3.05 -0.51,-12.76 -1.06,-15.02 -0.57,-2.37 -7.46,-5.63 -8.1,-8.24 -1.51,-6.19 0.19,-7.75 -3.13,-13.03 -1.67,-2.66 -5.22,-7.47 -6.27,-10l-6.42 -17.89c-1.34,-3.88 -4.03,-6.52 -6.52,-9.78 -1.3,-1.71 -2.24,-3.03 -3.49,-4.65 -1.78,-2.32 -1.76,-2.06 -4.67,-3.54 -14.45,-7.32 -7.14,-4.75 -23.56,-9.41 -3.75,-1.06 -36.65,-10.55 -38.98,-10.76 -1.26,2.71 -2.76,5.61 -4.18,8.53 -0.91,1.88 -0.92,2.64 -2.72,3.65l-8.29 4.54c-2.1,1.2 -2.1,0.74 -4.84,0.14l-16.02 -3.44c-2.58,-0.56 -2.6,-0.59 -4.5,-1.84 -2.11,-1.4 -14.59,-9.9 -15.91,-10 -2.48,-0.17 -8.35,1.32 -11.49,1.44 -0.66,-1.38 -1.83,-2.28 -3.17,-3.7 -1.25,-1.32 -1.84,-2.25 -3.35,-3.76 -2.21,-2.21 -4.57,-5.25 -6.7,-7.53 -2.02,-2.15 -1.43,-1.92 -1.45,-5.42 -0.05,-6.86 0.09,-13.81 -0.24,-20.66 -3.51,-0.63 -11.12,1.2 -14.27,0.3 -7.86,-2.26 -5.02,-2.01 -13.1,-0.31 -7.16,1.51 -6.98,1.37 -14.41,1.24 -2.64,-0.05 -5.27,-0.09 -7.91,-0.15 -3.92,-0.08 -3.52,0.19 -6.56,1.47 -7.43,3.12 -14.8,6.15 -22.32,9.34 -3.92,1.66 -9.89,1.24 -14.35,1.41 -4.92,0.19 -10.41,0.61 -15.19,0.51z"/>
   <path class="fil1" d="M93.01 29.39c4.78,0.1 10.26,-0.33 15.19,-0.51 4.46,-0.17 10.43,0.26 14.35,-1.41 7.52,-3.19 14.89,-6.22 22.32,-9.34 3.04,-1.28 2.64,-1.55 6.56,-1.47 2.64,0.05 5.27,0.1 7.91,0.15 7.43,0.14 7.25,0.27 14.41,-1.24 8.07,-1.7 5.24,-1.95 13.1,0.31 3.15,0.9 10.77,-0.93 14.27,-0.3 0.33,6.85 0.19,13.8 0.24,20.66 0.03,3.49 -0.56,3.26 1.45,5.42 2.13,2.28 4.49,5.32 6.7,7.53 1.51,1.51 2.09,2.44 3.35,3.76 1.34,1.42 2.51,2.32 3.17,3.7 3.14,-0.12 9.01,-1.61 11.49,-1.44 1.31,0.09 13.79,8.6 15.91,10 1.9,1.25 1.92,1.28 4.5,1.84l16.02 3.44c2.74,0.59 2.74,1.05 4.84,-0.14l8.29 -4.54c1.8,-1.01 1.81,-1.77 2.72,-3.65 1.42,-2.92 2.93,-5.82 4.18,-8.53 2.34,0.21 35.24,9.7 38.98,10.76 16.43,4.65 9.12,2.08 23.56,9.41 2.91,1.48 2.89,1.22 4.67,3.54 1.25,1.63 2.18,2.94 3.49,4.65 2.48,3.26 5.18,5.9 6.52,9.78l6.42 17.89c1.05,2.53 4.6,7.35 6.27,10 3.33,5.28 1.62,6.83 3.13,13.03 0.64,2.61 7.53,5.87 8.1,8.24 0.54,2.26 0.87,11.97 1.06,15.02 0.21,3.48 0.82,3.7 2.13,6 1.89,3.32 11.55,18.63 12.01,20.62 0.9,3.86 0,11.11 0.83,15.14 2.87,1.67 8.38,0.93 12.36,3.91 3.17,2.38 6.59,3.94 8.44,7.4 1.84,3.42 3.55,6.83 5.4,10.36 0.92,1.75 2.37,2.67 3.96,3.93 6.3,5.01 4.69,4.95 10.8,4.52 2.37,-0.17 4.81,-0.31 7.27,-0.47 5.58,-0.37 8.79,-0.01 13.56,-2.06 3.58,-1.55 7.24,-3.17 11.01,-4.7l8.24 -3.55c1.65,-0.73 1.17,-0.48 2.78,0.13 0.03,2.08 -1.34,7.59 -1.82,10.02 -0.85,4.34 -0.39,5.16 -3.57,8.37 -4.15,4.19 -10.86,12.04 -14.26,15.3 -1.18,1.13 -1.59,1.76 -2.82,2.98 -3.04,3.02 -5.58,6.31 -8.62,9.32 -1.22,1.21 -1.64,1.85 -2.82,2.98 -3.9,3.74 -7.44,8.39 -11.32,12.17 -3.89,3.78 -7.5,8.47 -11.41,12.35 -4,3.97 -7.56,7.98 -11.32,12.17 -4.95,5.53 -6.15,5.46 -10.26,13.25 -1.37,2.61 -2.67,5.06 -4.08,7.62 -1.33,2.41 -2.89,5.34 -4.16,7.77 -1.21,2.33 -0.99,1.94 -1.04,5.04 -0.1,5.78 -0.57,11.93 -0.33,17.66 0.09,2.1 5.58,13.65 6.78,16.49 0.97,2.31 2.74,5.71 3.46,8.08 0.59,1.93 -4.66,24.99 -5.61,29.98 -0.46,2.43 -1.13,2.39 -2.42,3.66 -2.6,2.56 -9.71,9.96 -12.26,11.18l-11.89 5.69c-2.42,1.15 -5.68,2.29 -7.33,4.21 -1.84,2.15 -3.92,4.01 -5.74,6.14 -1.11,1.3 -5.06,4.92 -5.54,6.13l8.28 7.61c0.98,0.8 1.57,1.48 2.63,2.35 0.08,1.35 -2.15,8.28 -2.67,10.09 -0.91,3.22 -0.66,2.14 -2.43,3.91l-13.5 11.79c-1.01,0.85 -2.54,1.85 -3.05,3.27 -1.75,4.87 -2.94,9.75 -4.53,14.67 -1.48,4.57 -1.77,4.12 -5.31,7.39l-6.45 6.21c-1.76,1.61 -2.92,6.46 -3.8,8.95 -0.84,2.39 -0.69,2.65 -2.25,4.11l-6.52 6.14c-8.17,7.57 -4.87,6.49 -15.41,9.79 -11.38,3.56 -8.46,3.51 -20.89,4.1 -6.78,0.32 -17.48,1.19 -23.76,1.06 -0.14,-0.2 -0.17,-0.24 -0.33,-0.57 -0.12,-0.26 -0.12,-0.28 -0.22,-0.58 -0.13,-0.38 -0.23,-0.82 -0.35,-1.21 -0.25,-0.85 -0.42,-1.39 -0.67,-2.22 -4.45,-15.05 -5.31,-15.24 -11.88,-29.98 -1.48,-3.32 -8.69,-18.12 -9.11,-20.76 -0.27,-1.72 -0.55,-3.41 -0.83,-5.12 -0.56,-3.37 -1.1,-6.67 -1.66,-10.04 -1.14,-6.84 -2.28,-13.72 -3.41,-20.57 -0.75,-4.54 -0.18,-5.31 -3.06,-8.94l-10.45 -13.49c-3.42,-4.45 -4.18,-3.73 -3.57,-7.77 1.07,-7.09 2.1,-14.09 3.13,-21.23 0.4,-2.8 1.42,-13.45 2.88,-15.51l7.43 -10.85c1.27,-1.77 0.98,-2.6 1.12,-5.11 0.46,-8.05 0.68,-7.42 -1.83,-15.4l-5.75 -18.04c-1.11,-3.45 -0.65,-7.26 -1.54,-10.18 -0.92,-3.04 -2.1,-6.08 -3.04,-8.95 -0.53,-1.62 -1.51,-2.26 -2.6,-3.48 -4.7,-5.26 -9.65,-10.14 -14.31,-15.46 -3.79,-4.32 -3.99,-2.86 -3.64,-8.02 0.17,-2.54 0.3,-9.17 0.89,-11.16 1.16,-3.93 5.67,-15.31 5.99,-18.18 -1.97,-1.81 -7.49,-5.27 -9.93,-6.95 -1.48,-1.02 -3.55,-2.72 -4.98,-3.48 -1.33,-0.7 -13.39,-1.01 -15.69,-1.14 -4.52,-0.27 -3.79,0.54 -6.07,-2.49 -1.7,-2.26 -5.35,-7.95 -7.16,-9.45 -3.77,0.67 -8.17,2.02 -11.93,2.95l-35.62 8.97c-3.52,0.92 -2.91,0.97 -6.38,-0.03 -2.01,-0.58 -3.78,-1.13 -5.75,-1.71 -4.17,-1.23 -8.57,-0.34 -13.33,0.08 -15.37,1.34 -10.61,2.29 -17.78,-2.97 -4.29,-3.14 -8.19,-6.68 -12.44,-10.03 -2.83,-2.22 -5.31,-4.61 -8.33,-6.73 -2.21,-1.55 -8.79,-3.52 -10.29,-4.83 -0.81,-0.71 -4.92,-7.6 -5.9,-9.07 -2.25,-3.42 -4.34,-4.96 -7.55,-7.51 -1.48,-1.17 -2.8,-2.27 -4.22,-3.44 -2.24,-1.85 -2.43,-1.04 -2.81,-4.53 -0.95,-8.81 -2.04,-17.65 -3.05,-26.6 -0.72,-6.44 -0.31,-5.47 2.35,-11.67 2.69,-6.26 3.2,-5.92 2.82,-11.91 -0.39,-6.15 0.02,-6.72 -2.3,-12.59 -0.27,-0.69 -2.02,-5.07 -2.05,-5.5 -0.08,-1.02 14.11,-20.15 15.38,-21.99 4.09,-5.89 8.46,-11.65 12.62,-17.53 2.02,-2.86 4.01,-6.21 6.8,-8.28 1.8,-1.33 11.64,-8.32 12.94,-9.68 0.79,-0.83 2.2,-3.45 2.86,-4.56 2.08,-3.46 4.27,-5.87 5.12,-10.03 0.86,-4.19 1.75,-8.35 2.58,-12.63 0.29,-1.51 0.16,-1.91 1.1,-2.87l18 -19.2c0.59,-0.62 1.26,-1.4 2.07,-1.77 0.3,1.13 1.28,3.25 1.81,4.24zm-1.84 -29.39c-2.96,5.93 -5.4,11.54 -8.04,17.51 -1.39,3.13 -3.64,4.39 -5.66,6.72l-12.23 13.1c-2.86,2.97 -3.94,2.86 -4.91,7.5 -0.51,2.44 -0.98,4.69 -1.46,7.1 -1.48,7.45 -0.56,6.04 -4.28,12.49 -3.31,5.74 -3.24,4.92 -8.21,8.69 -2.12,1.61 -7.97,5.44 -9.4,7.17 -2.61,3.14 -4.76,6.71 -7.07,9.85l-21.05 29.23c-2.28,3.15 -4.79,6.76 -7.07,9.85 -2.13,2.89 -2.06,2.02 -0.71,5.63 1.09,2.9 4.08,9.48 4.34,12.1 0.81,8.18 0.74,6.68 -2.1,13.68 -3.11,7.66 -3.81,6.37 -3.04,12.8l2.54 22.14c0.26,2.28 1.07,13.5 2.08,14.6 1.41,1.55 7.35,6.01 9.15,7.49 4.91,4.03 4.51,3.32 7.99,8.88 1.06,1.69 2.14,3.33 3.29,5.12 1.67,2.6 1.09,2.73 4.11,4.04 2.1,0.92 3.92,1.78 5.89,2.63 2.61,1.12 3.46,1.54 5.38,3.1l25.59 20.66c1.26,0.99 1.61,0.64 3.14,0.51 5.21,-0.45 10.28,-0.87 15.49,-1.29 7.92,-0.64 6.53,-1.1 14.2,1.22 1.88,0.57 5.01,1.9 6.79,1.59 3.63,-0.63 15.53,-3.93 19.82,-4.99 4.21,-1.04 24.18,-6.53 26.69,-6.54 1.25,2.76 6.01,7.39 7.11,9.94 5.35,0.24 10.77,0.67 16.1,0.94 8.54,0.44 5.47,0.64 12.24,4.87 -0.51,2.57 -2.16,6.65 -3.06,9.36 -1.38,4.13 -1.32,6.3 -1.61,10.84 -0.23,3.65 -0.84,8.37 -0.79,11.87 0.02,1.49 1.63,2.6 2.45,3.51l8.84 9.61c2.32,2.46 3.98,4.17 5.97,6.42 2.4,2.71 4.01,3.31 5.3,7.06 1.37,3.97 1.84,5.03 2.25,9.75 0.5,5.65 6.33,21.94 8.4,28.42 0.56,1.75 0.21,3.55 0.1,5.51 -0.16,2.98 -0.05,2.59 -1.45,4.76 -1.55,2.4 -3.42,5.03 -5.04,7.39 -2.84,4.13 -2.42,3.2 -3.28,9l-5.65 38.15c-0.23,1.63 -0.3,1.46 0.56,2.51 5.01,6.06 9.87,12.64 14.74,18.94 0.92,1.19 1.94,2.02 2.24,3.82l5.17 31.25c1.5,9.11 0.48,7.14 3.89,14.65l13.35 29.35c0.63,1.41 1.31,2.74 1.88,4.14 1.13,2.73 5.95,19.67 7.02,23.28 8.93,-0.02 18.6,-0.84 27.64,-1.26 15.18,-0.71 11.19,0.58 25.25,-3.9 3.71,-1.18 7.45,-2.4 11.09,-3.53 2.01,-0.63 2.96,-2.01 4.23,-3.15l11.42 -10.71c3.9,-3.62 4.43,-3.21 6.26,-8.56 2.1,-6.14 1.52,-6.07 5.18,-9.66 2.54,-2.49 4.93,-4.8 7.51,-7.26 2.02,-1.92 1.62,-1.48 2.65,-4.77l3.52 -11.39c1.29,-4.28 1.49,-4.11 4.46,-6.66l11.81 -10.31c1.5,-1.43 2.81,-1.88 3.41,-3.98l2.5 -8.69c0.67,-2.32 3.07,-9.57 3.15,-11.57 -2.09,-1.86 -6.28,-5.37 -8.01,-7.49 0.83,-1.02 1.95,-2.07 2.89,-3.14 1.76,-2.02 9,-4.91 11.64,-6.17 8.29,-3.95 7.45,-2.85 14.22,-9.44 2.08,-2.02 3.97,-3.82 6.04,-5.82 2.11,-2.04 4.65,-3.54 5.24,-6.64 1.29,-6.72 2.68,-13.25 4.01,-20.06 0.65,-3.34 1.34,-6.65 1.99,-9.96 1.09,-5.56 1.53,-4.55 -0.54,-9.42 -2.39,-5.62 -4.64,-11.06 -7.08,-16.5 -1.93,-4.29 -2.19,-4.02 -2.09,-9.54 0.06,-3.41 -0.16,-8.67 0.23,-11.85 0.04,-0.34 8.67,-17.41 10.31,-19.57 1.61,-2.12 23.1,-25.08 25.66,-27.64l17.13 -18.48c0.86,-1.01 2.02,-2.23 2.92,-3.17l22.9 -24.6c4.93,-5.65 4.44,-2.93 6.13,-11.63 0.81,-4.2 3.73,-16.77 3.82,-20.1 -3.91,-1.81 -7.45,-3.43 -11.39,-5.32 -1.48,-0.71 -1.33,-0.94 -2.91,-0.27l-20.17 8.64c-1.92,0.81 -4.04,2.07 -6.15,2.22 -2.31,0.17 -13.83,1.23 -15.24,0.92 -0.47,-0.1 -4.17,-2.99 -4.61,-3.56 -0.53,-0.67 -1.09,-2.03 -1.46,-2.73l-4.26 -8.08c-1.64,-3.05 -1.1,-2.73 -3.76,-4.65l-9.48 -6.91c-1.96,-1.43 -3.72,-1.31 -6.19,-2.05 -0.19,-2.8 -0.29,-5.63 -0.4,-8.38 -0.1,-2.65 -1.48,-4.17 -2.61,-6.08l-9.83 -16.68c-1.81,-3.02 -1.71,-2.47 -1.98,-6.69 -0.15,-2.27 -0.75,-14.86 -1.16,-15.98 -0.35,-0.97 -5.62,-5.35 -6.99,-6.41 -2.55,-1.97 -1.18,-4.57 -2.57,-10.24 -0.68,-2.76 -6.82,-10.18 -8.42,-13.62 -1.4,-2.99 -4.53,-12.41 -5.69,-15.77 -2.07,-6.02 -2.82,-6.37 -6.39,-11.18 -9.54,-12.85 -5.81,-9.58 -18.67,-16.45 -4.43,-2.37 -7.35,-3.9 -12.25,-5.26 -9.39,-2.6 -18.37,-5.08 -27.74,-7.74 -3,-0.85 -25.13,-7.33 -27.75,-7.66 -1.33,1.54 -4.69,9.19 -5.96,11.81 -2.41,5 -0.99,3.52 -5.57,6.3 -1.99,1.21 -2.25,0.63 -4.72,0.11 -3.21,-0.67 -6.51,-1.4 -9.67,-2.07 -4.5,-0.95 -4.89,-1.84 -8.08,-3.85 -1.99,-1.25 -12.76,-8.73 -14.18,-9.12 -1.45,-0.4 -7.87,1.2 -10.19,1.06 -1.03,-1.15 -2.08,-2.17 -3.04,-3.32 -1.01,-1.21 -1.97,-2.07 -3.03,-3.29 -0.8,-0.92 -2.43,-2.34 -2.53,-3.85 -0.53,-8.51 0.35,-20.55 -0.34,-30.43 -4.35,-0.88 -19.13,1.84 -23.09,0.75 -9.63,-2.63 -3.55,-2.77 -19.98,0.67 -4.55,0.95 -10.91,0.3 -15.84,0.21 -7.99,-0.15 -6.48,0.27 -13.4,3 -3.95,1.56 -7.56,3.14 -11.44,4.8 -3.99,1.71 -7.89,3.97 -12.29,4.13 -4.91,0.18 -10.79,0.7 -15.57,0.5 -1.53,-2.18 -3.19,-6.98 -4.3,-9.54 -0.9,-2.07 -3.19,-7.79 -4.23,-9.25z"/>
   <path class="fil2" d="M81.16 166.67c-0.42,1.04 -0.2,2.12 -0.04,3.12 2.27,0.47 29.73,0.65 34.52,0.74l224.88 4.13c3.12,0.06 15.31,0.66 17.4,0.12l0.15 -3.03c-1.87,-0.62 -61.82,-1.34 -69.16,-1.48 -63.54,-1.17 -127.07,-2.33 -190.61,-3.5 -2.98,-0.05 -15.28,-0.63 -17.14,-0.11z"/>
   <path class="fil1" d="M157.42 160.18l7.8 0.14c0.19,-3.68 0.05,-26.1 0.7,-27.33l6.7 13.67c1.62,3.32 5.56,11.02 6.71,13.91l9.42 0.16 0.74 -38.9 -7.81 -0.23 -0.49 25.88c-1.1,-1.23 -7.9,-16.18 -9.52,-19.56 -0.93,-1.93 -2.47,-4.64 -3.13,-6.55l-10.41 -0.19 -0.7 39.01z"/>
   <path class="fil1" d="M91.62 151.85c-0.5,-0.47 -0.31,0.55 -0.4,-1.04l0.26 -8.59c1.35,-0.46 7.24,-0.3 8.28,0.35 2.08,-0.05 4.25,0.72 5.01,2.39 0.84,1.85 0.4,4.34 -0.7,5.48 -2.08,2.15 -8.87,1.64 -12.45,1.42zm0.31 -16.63c-0.55,-0.44 -0.33,0.57 -0.43,-1.02l0.1 -3.18c0.03,-1.35 -0.08,-2.8 0.17,-4.11 1.1,-0.31 2.4,-0.13 3.56,-0.11 1.27,0.02 2.57,-0.11 3.57,0.37 1.81,0.08 3.49,0.67 4.2,2.04 0.78,1.5 0.29,3.74 -0.73,4.69 -2.05,1.91 -7.14,1.46 -10.45,1.31zm-8.67 23.49c3.01,0.57 11.13,0.33 14.65,0.37 4.63,0.05 8.94,-0.72 11.9,-2.97 4.19,-3.18 5.2,-11.69 0.41,-15.61 -2.27,-1.86 -4.37,-1.66 -5.33,-2.38 2.71,-1.15 5.49,-1.76 6.44,-6.46 0.89,-4.38 -0.55,-7.75 -3.17,-9.38 -2.92,-1.81 -7.12,-2.15 -11.11,-2.23 -3.27,-0.07 -10.19,-0.56 -13.05,-0.14l-0.74 38.8z"/>
   <path class="fil1" d="M333.28 152.39c-0.95,0.34 -4.95,3.51 -6.06,4.31 0.23,1.25 2.06,3.18 2.91,3.84 6.93,5.43 20.97,5.54 25.68,-1.52 1.85,-2.77 2.41,-7.96 0.95,-11.46 -3.11,-7.41 -12.88,-6.65 -18.41,-9.72 -3.27,-1.81 -2.92,-6.61 3.23,-7 6.44,-0.41 7.76,3.2 9.42,4.61 1.86,-0.87 4.03,-3.36 5.97,-4.23 -0.52,-2.71 -4.59,-5.44 -7.47,-6.42 -3.6,-1.22 -8.61,-1.4 -12.4,-0.5 -9.54,2.27 -10.74,12.24 -7.02,17.37 4.02,5.54 16.58,5.62 18.74,9.12 1.84,2.98 -0.08,6.65 -6.41,6.51 -6.3,-0.14 -7.13,-3.09 -9.14,-4.92z"/>
   <path class="fil1" d="M298.84 151.67c-2.05,0.8 -4.3,3.37 -6.28,4.34 0.77,2.67 4.54,5.35 7.41,6.43 5.98,2.27 16.93,2.32 21.25,-4.09 1.86,-2.76 2.4,-8.01 0.97,-11.38 -4.25,-10.02 -23.51,-6.22 -20.07,-14.34 1.35,-3.18 10.38,-4.16 14.08,2.2 0.57,-0.16 5.49,-3.64 6.2,-4.6 -3.91,-8.41 -23.62,-10.62 -27.85,-0.36 -1.48,3.58 -1.21,8.41 0.86,11.06 4.47,5.71 16.64,5.73 18.84,9.28 4.13,6.7 -10.85,9.85 -15.4,1.45z"/>
   <path class="fil1" d="M134.95 129.16l4.7 15.76 -10.31 -0.21 5.61 -15.55zm-18.62 30.21l7.94 0.18 2.67 -7.86 14.89 0.27 2.51 7.93 8.1 0.17 -12.11 -39.15 -10.32 -0.26 -13.67 38.72z"/>
   <path class="fil1" d="M197.14 160.8l7.95 0.23c0.11,-3.04 0.12,-6.01 0.18,-8.95 0.07,-3.68 -0.58,-4.5 2.35,-7.04 0.73,0.41 9.99,15.11 10.51,16.2l9.91 0.23c-0.48,-1.29 -2.67,-4.18 -3.67,-5.66l-7.42 -10.99c-1.23,-1.78 -2.81,-3.91 -3.81,-5.78 0.69,-1.19 5.99,-6.82 7.34,-8.36l7.27 -8.16c-1.01,-0.14 -8.11,-0.35 -8.87,-0.19 -1.09,0.23 -10.26,11.67 -12.46,13.9 -0.06,0.06 -0.23,0.23 -0.3,0.28 -0.46,0.38 0.09,0.05 -0.57,0.39l0.26 -14.74 -7.93 -0.26 -0.74 38.9z"/>
   <polygon class="fil1" points="262.36,162.1 287.71,162.56 287.85,155.26 270.51,154.95 270.67,145.63 285.3,145.89 285.43,138.91 270.83,138.54 270.95,130.34 288.29,130.61 288.46,123.57 263.13,123.1 "/>
   <polygon class="fil1" points="233.17,161.53 257.51,162 257.66,154.74 241.4,154.43 241.87,122.73 233.9,122.56 "/>
   <path class="fil3" d="M288.91 170.28c7.34,0.14 67.29,0.86 69.16,1.48l-0.15 3.03c-2.1,0.54 -14.28,-0.06 -17.4,-0.12l-224.88 -4.13c-4.79,-0.09 -32.25,-0.27 -34.52,-0.74 -0.16,-1 -0.38,-2.09 0.04,-3.12 1.86,-0.52 14.16,0.05 17.14,0.11 63.54,1.17 127.07,2.33 190.61,3.5zm-205.44 0.11l274.9 5.04 0.18 -4.39c-11.67,-0.62 -23.96,-0.47 -35.62,-0.69 -77.42,-1.42 -154.84,-2.84 -232.26,-4.26 -2.89,-0.05 -6.16,-0.26 -9,-0.19 -1.05,0.03 -1.06,-0.16 -1.27,0.78 -0.03,0.12 -0.09,2.18 -0.08,2.41 0.05,1.9 1.12,1.27 3.15,1.31z"/>
   <path class="fil4" d="M191.59 191.12l0.15 0.04c0.43,-1.51 -0.61,1.29 0.18,-0.59 0.03,-0.07 0.14,-0.09 0.16,-0.25 0.03,-0.16 0.14,-0.15 0.2,-0.23l5.03 0.5c1.42,-0.49 0.59,0.2 0.79,-1.45 -2.67,-1.04 -5.76,1 -5.73,-1.22 0.68,0.38 4.39,0.68 5.22,0.41 0.27,-0.63 0.03,-0.75 -0.2,-1.08 -0.39,-0.57 -0.36,0.06 -0.53,-0.8 2.55,-0.94 0.86,1.96 1.88,4.17l0.38 0.69 0.05 -0.01 0.11 -6.08c1.97,-0.12 5.35,-0.06 7.34,0.14 2.77,0.28 3.98,0.97 4.39,3.48l0 1.89c1.08,-0.35 0.7,0.44 0.62,-2.31l1 0.34c-0.65,1.03 -0.76,0.16 -0.85,2.03 1.39,0.25 0.72,0.26 2.11,-0.07 -0.05,-2.09 -0.7,-0.6 -0.73,-2.14l4.72 0.21 0.45 2.33c0.03,0.06 0.15,0.13 0.29,0.56l0.05 0c0.54,-6.98 -1.45,-10.78 -7.52,-12.29 -5.02,-1.25 -13.65,-0.71 -19.33,-0.93l-0.23 12.66z"/>
   <path class="fil4" d="M248.03 192.25l7.51 0.11c0.33,0.45 0.17,-0.12 0.22,0.72 0.72,-0.98 0.96,-6.39 7.04,-7.23 2.21,-0.3 4.54,-0.03 6.34,0.88 2.09,1.05 2.62,2.7 3.59,3.5 0.76,-0.3 5.16,-3.66 5.82,-4.35 -2.38,-5.74 -11.68,-7.68 -18.18,-6.56 -7,1.2 -11.06,5.7 -12.33,12.94z"/>
   <path class="fil5" d="M211.7 202.65c-0.14,-0.79 -0.26,-0.67 -0.57,-1.4 0.59,-0.34 1.54,-0.56 2.22,-0.87 0.73,-0.34 1.13,-0.68 1.7,-1.02 -0.59,-0.69 -0.53,1.18 -0.49,-0.94l1.16 -0.63c0.71,-0.71 -0.1,0.63 0.6,-1.38 0.51,-1.47 0.88,-0.42 1.49,-2.68 -3.4,-0.06 -1.3,0.5 -3.22,3.34l-0.74 0.9c-0.32,0.48 -0.43,0.84 -0.24,1.22 -0.07,-0.04 -0.16,-0.07 -0.22,-0.08l-0.92 -0.21c-0.16,-0.02 -0.63,-0 -0.82,-0.01l1.61 -0.87c0.06,-0.13 0.18,-0.09 0.26,-0.15 -0.18,-1.45 -0.51,-1.22 -1.05,-2.28 -0.37,-0.72 -0.2,-1.29 -0.19,-2.23 2.29,-0.6 1.82,-0.25 2.5,0.27 0.05,0.04 0.16,0.21 0.19,0.15 0.04,-0.06 0.13,0.12 0.2,0.16l1.05 -0.69c0.05,-0.02 0.12,-0.02 0.17,-0.04 2.06,-0.52 0.93,0.15 1.44,-0.54 -0.8,-0.67 -4.8,-0.35 -6.06,-0.38 -0.51,0.89 0.03,0.86 -1.37,2.88 -2.41,-0.04 -0.66,0.11 -1.15,-0.58 -2.96,1.28 -6.73,0.46 -10.15,0.68 -0.84,-0.51 -0.52,-2.31 -0.51,-3.22 -1.16,-0.43 -1.9,-0.24 -3.16,-0.25 -2.04,-0.03 -2.54,-0.2 -3.2,0.12 -0.23,1.45 -0.39,11.12 -0.06,12.26l6.2 0.06 0.21 -2.82c1.67,-0.24 -0.64,-0.43 2.22,-0.18 2.73,0.24 2.4,0.25 3.6,2.29 0.77,1.31 1.66,0.98 3.46,1.01 1.37,0.03 3.28,0.21 4.54,0.13 -0.17,-1.84 -0.73,-0.27 -0.69,-2.02z"/>
   <path class="fil4" d="M162.23 190.72l6.78 0.08c0.07,0.01 0.15,0.04 0.21,0.05l0.36 2.24 0.17 0.03 0.18 -8.15 16.15 0.28 0.14 -6.88 -23.75 -0.4 -0.24 12.75z"/>
   <path class="fil6" d="M124.63 208.89l-0.42 2.03c-0.02,1.3 -0.46,1.4 -0.33,2.65 1.67,0.49 4.59,0.12 6.24,-0.15l2.3 -6.54c0.54,-0.82 -0.08,-0.3 0.62,-0.3 2.04,0.69 10.94,0.22 13.98,0.48 0.77,1.56 1.33,5.04 2.06,6.23 1.19,0.52 0.78,0.85 3.2,0.86 1.07,0.01 2.74,0.17 3.69,-0.47 0.03,-0.88 0.27,-2.5 -0.98,-2.13 -0.45,0.13 -0.48,0.13 -1.1,1.57l-3.45 -0.06c0.2,-0.59 2.97,-0.21 3.71,-0.2 0.1,-1.4 0.2,-1.27 0.51,-2.03 0.58,-1.44 -0.64,-2.15 0.37,-3.23l-1.46 -3.91c-0.33,0.74 -1.14,0.38 -3.21,0.33 -1.14,-0.03 -2.29,-0.04 -3.43,-0.06l-19.01 -0.32c-0.96,-0.09 -1.06,0.32 -1.08,-0.51l-2.21 5.75z"/>
   <path class="fil4" d="M131.39 190.16l6.83 0.03c0.25,0.34 0.19,0.03 0.17,0.71 0.63,-0.68 1.09,-3.85 2.03,-5.27l1.51 4.72c1.79,-0.14 6.37,-0.18 7.72,0.24l-4.03 -12.96 -9.87 -0.19 -4.35 12.72z"/>
   <path class="fil6" d="M284.7 206.47l-0.03 0.32c0.53,2.92 -1.49,3.03 -1.57,7.38 1.11,-0.59 1.09,-1.12 1.35,-1.56 0.77,0.27 0.79,0.28 1.84,0.3 0.07,-0.08 0.13,-0.31 0.16,-0.26 0.03,0.04 0.11,-0.18 0.15,-0.25 0.55,-1.01 0.34,-1.07 1.04,-1.05 -0.24,0.34 -0.31,-0.59 -0.27,0.78 0.08,2.36 -0.16,0.51 0.49,1.33 0.05,0 0.6,0.06 0.6,0.06l0.34 -0.13c0.58,-0.4 0.87,-2.67 0.99,-3.05 0.4,-1.31 -0.04,-0.83 1.15,-0.85 2.21,0.66 10.84,0.16 14.02,0.46l1.72 5.77 0.67 1.76 7.54 0.11c-0.05,-1.06 -2.93,-10.21 -3.39,-11.05 -0.28,0.71 -0.12,0.43 -1.34,0.45l-25.46 -0.52z"/>
   <polygon class="fil4" points="229.66,191.87 237.03,192.01 236.83,205.65 237.08,205.65 237.44,185.14 242.5,185.18 242.59,179.4 224.75,179.16 224.64,184.88 229.78,185.01 "/>
   <path class="fil7" d="M169.75 193.13l-0.17 -0.03c-0.49,-0.58 -0.53,-0.72 -0.52,-1.66l-6.07 -0.23c-0.38,0.95 -0.26,2.01 -0.28,3.08 -0.14,10.66 -2.09,9.92 6.24,9.26 0.43,-1.94 -0.07,-2.24 0.07,-3.52 0.14,-1.27 5.59,-0.55 6.74,-0.53 2.26,0.04 4.89,-0.25 6.92,-0.03 0.01,-1.01 0.15,-1.77 0.16,-2.71 0.01,-1.05 -0.25,-1.81 -0.22,-2.77 -4.95,-0.4 -6.65,-0.35 -11.26,-0.34 -0.2,0 -0.59,0 -0.78,-0.05 -0.9,-0.23 -0.43,0.07 -0.85,-0.49z"/>
   <path class="fil5" d="M126.84 203.13c0.02,0.83 0.12,0.42 1.08,0.51l19.01 0.32c1.14,0.02 2.29,0.03 3.43,0.06 2.07,0.05 2.89,0.41 3.21,-0.33l-1.39 -4.75 -0.17 1.48 -0.85 -0.29c-0.07,-0.01 -0.16,-0 -0.22,-0 -0.08,0 -0.43,0.22 -0.5,0.27l1.4 0.63c0.46,0.61 0.18,1.85 0.18,1.85 -0,-0.03 -0.02,0.13 -0.05,0.19 -0.09,0.03 -0.21,0.03 -0.28,0.02 -1.45,-0.17 -0.75,0.24 -1.02,-1.1 -1.32,-0.31 -3.28,-0.52 -4.51,-0.04 -0.06,0.02 -0.13,0.06 -0.19,0.09l-0.62 0.29c-0.04,-0.06 -0.15,0.07 -0.22,0.1 -0.06,-0.19 -0.09,-0.52 -0.12,-0.72l-0.21 -1.06 -9.57 -0.19 3.17 -9.54c0.02,-0.68 0.08,-0.36 -0.17,-0.71l-6.83 -0.03 -4.55 12.97z"/>
   <path class="fil0" d="M91.62 151.85c3.58,0.23 10.37,0.73 12.45,-1.42 1.1,-1.13 1.53,-3.62 0.7,-5.48 -0.76,-1.68 -2.93,-2.44 -5.01,-2.39l-8.08 -0.31 -0.07 9.59z"/>
   <path class="fil8" d="M241.62 211.12c-1.02,-0.05 -5.29,0.16 -5.61,-0.39 -0.29,-0.51 -0.01,-0.12 0.11,-0.46 0.47,-1.29 0.51,-2.79 0.34,-4.14 -1.44,-0.38 -4.94,-0.37 -6.51,-0.25 -0.31,1.43 -0.31,3.46 0.07,4.55 -1.37,0.44 -3.51,0.45 -5.32,0.46l0.09 4.54c2.69,0.14 14.87,0.82 16.39,0.13 0.55,-0.97 0.37,-3.09 0.44,-4.45z"/>
   <path class="fil7" d="M287.6 198.04l-2.49 6.67c0.68,0.86 0.45,-1.11 0.5,1.28 2.08,-0.41 1.54,0.7 2.89,-0.42 -0.41,-0.99 0.07,-0.54 -0.97,-0.71 -0.96,-0.16 -0.22,-0.06 -0.62,0.24 -0.27,-0.8 0.01,-1.78 0.37,-2.51 0.02,-0.05 0.06,-0.12 0.09,-0.16l1.26 -2.78c0.54,1.9 -1.39,2.73 -1.04,4.08 0.26,1.01 -0.74,0.7 1.08,0.71 -0.13,1.14 -0.2,0.73 0.11,1.68 1.46,-0.01 1.65,-0.17 3.18,-0.02 0.75,0.08 1.59,0.13 2.34,0.19 3.74,0.27 5.1,0.19 8.46,-0.14 1.6,-0.16 5.95,0.35 7.86,0.11 -0.39,-1.44 0.35,-0.76 -0.96,-1.07l-5.3 0.07c-0.23,-0.99 0.3,-0.76 -0.49,-1.77 -1.56,0.42 -0.06,0.2 -1.24,0.67 -0.73,0.29 -0.45,0.16 -1.23,0.11 -1.04,-0.06 -2.04,-0.08 -3.09,-0.1 -4.62,-0.08 -3.87,-0.53 -5.18,0.57 -0.34,-0.94 -0.93,-1.39 -1.21,-2.16 0.5,-0.99 1,-1.32 1.97,-1.66l0.65 -1.68c-1.15,-1.87 1.3,-3.89 1.1,-5.53l-5.84 -0.18c-0.3,0.92 -0.62,1.52 -0.87,2.47 -0.72,2.69 -0.38,2.22 -1.32,2.04z"/>
   <path class="fil6" d="M268.23 210.35c-0.23,1.22 -0.88,0.37 -0.92,1.69 -0.63,-0.01 -2.17,-0.12 -2.7,-0.03 -1.99,0.32 -0.5,0.64 -1.54,1.01 -0.44,-0.78 -0.47,-0.01 -1.09,-0.97 -0.64,-0.97 -0.18,-0.72 -2.55,-1.69 -0.07,4.05 -0.29,3.03 0.97,4.45 0.69,0.01 1.47,0.06 2.14,0.05l1.26 -0.14c1.3,-0.3 -0.76,-0.33 0.9,-0.18 0.03,0 0.57,0.12 0.57,0.12 0.05,0.01 0.13,0.05 0.18,0.06l0.64 0.19c0.01,-0.03 0.07,0.02 0.1,0 -0.84,0.01 -2.21,0.36 -3,0.43 -1.39,0.12 -2.43,-0.07 -3.35,1.04l8.24 0.6c1.73,0.39 2.65,-0.61 4.12,-0.53 0.29,-0.31 0.12,-0.15 0.5,-0.42 0.97,-0.7 1.28,-0.5 2.96,-1.89 1.03,-0.73 2.23,-2.01 2.94,-3.21 -0.51,-0.77 -4.5,-3.83 -5.66,-4.39 -0.88,0.44 -1.61,1.57 -2.36,2.18l-2.36 1.63z"/>
   <path class="fil6" d="M248.22 205.8c1.61,4.57 2.6,6.91 6.51,9.3 1.69,1.03 3.67,1.77 5.89,2.06 1.19,0.16 6.36,0.65 7.47,-0.18l-8.24 -0.6c0.93,-1.11 1.96,-0.92 3.35,-1.04 0.79,-0.07 2.16,-0.42 3,-0.43 -0.03,0.02 -0.09,-0.03 -0.1,-0l-0.64 -0.19c-0.05,-0.02 -0.13,-0.05 -0.18,-0.06 -0,-0 -0.54,-0.12 -0.57,-0.12 -1.67,-0.15 0.4,-0.12 -0.9,0.18l-1.26 0.14c-0.67,0.01 -1.45,-0.04 -2.14,-0.05 -1.26,-1.41 -1.05,-0.39 -0.97,-4.45 2.37,0.97 1.91,0.71 2.55,1.69 0.62,0.96 0.65,0.18 1.09,0.97 1.04,-0.37 -0.45,-0.69 1.54,-1.01 0.52,-0.08 2.07,0.02 2.7,0.03 0.03,-1.31 0.69,-0.47 0.92,-1.69 -6.95,0.89 -9.19,0.21 -12.05,-4.91 -0.31,0.61 0.14,0.4 -0.62,0.51l-7.33 -0.15z"/>
   <path class="fil9" d="M292.86 182.44l0.41 0.8c0.32,1.39 -0.71,1.77 -0.97,3.71 -0.31,2.38 -0.93,1.41 -1.54,4.16 -0.31,1.38 0.87,1.06 2.22,1.08 -0.15,-1.78 -1.43,-0.65 0.56,-2.94 1.23,-1.42 0.44,-0.97 0.58,-3.15l3.69 -0.12 0.05 1.44 1.29 -0.15c0.31,1.37 0.67,2.72 0.83,4.2 2.09,-0.51 -0.13,-0.63 2.78,-0.33 0.99,0.11 2.16,0.07 3.18,0.09l-0.37 -1.44c-0.02,-0.07 -0.04,-0.14 -0.06,-0.2 -0.02,-0.07 -0.04,-0.14 -0.06,-0.2l-2.49 -8.17c-2.38,0.21 -8.21,-0.46 -8.71,0.19 -1.38,-0.8 -0.25,0.33 -0.67,-0.83l-0.71 1.86z"/>
   <path class="fil6" d="M209.43 212.26c1.01,0.75 1.59,2.31 2.43,3.39l8.39 0.22c-0.23,-1.59 -2.98,-4.53 -3.5,-6.25 -1.08,-0.85 -1.93,-3.57 -3.3,-4.43l-8.31 -0.11c0.66,1.47 4.14,6.14 4.29,7.18z"/>
   <path class="fil5" d="M144.78 200.63l0.21 1.06c0.03,0.19 0.06,0.52 0.12,0.72 0.08,-0.03 0.18,-0.16 0.22,-0.1l0.62 -0.29c0.06,-0.03 0.13,-0.06 0.19,-0.09 1.24,-0.47 3.19,-0.27 4.51,0.04 0.27,1.33 -0.43,0.93 1.02,1.1 0.07,0.01 0.19,0.01 0.28,-0.02 0.03,-0.06 0.05,-0.22 0.05,-0.19 0,0 0.28,-1.24 -0.18,-1.85l-1.4 -0.63c0.07,-0.05 0.43,-0.27 0.5,-0.27 0.07,0 0.15,-0 0.22,0l0.85 0.29 0.17 -1.48 -2 -6.33c-0.12,-0.41 -0.24,-0.81 -0.29,-1 -0.18,-0.63 -0.16,-0.39 -0.25,-1.03 -1.34,-0.43 -5.92,-0.39 -7.72,-0.24 0.56,2.14 3.01,8.63 2.86,10.28z"/>
   <path class="fil0" d="M91.93 135.21c3.31,0.15 8.4,0.59 10.45,-1.31 1.02,-0.95 1.51,-3.19 0.73,-4.69 -0.71,-1.38 -2.39,-1.97 -4.2,-2.04l-6.98 -0.1 0 8.15z"/>
   <path class="fil5" d="M230.16 204.88l6.3 -0.02c0.31,-1.46 0.38,-10.67 0.09,-12.11 -1.03,-0.41 -4.89,-0.43 -6.11,-0.2 -0.38,0.86 -0.64,11.02 -0.28,12.33z"/>
   <polygon class="fil0" points="129.33,144.71 139.65,144.92 134.95,129.16 "/>
   <path class="fil10" d="M292.86 182.44l-3.56 10.62 7.09 0.04 -0.09 0.7c0.55,-0.6 1.06,-3.45 1.81,-4.92l0.21 -0.36c0.79,1.31 0.88,4.32 1.81,5.33l-0.11 -0.68 7.4 0.26 -3.91 -12.87c-2.16,-0.15 -8.34,-0.63 -9.95,0.02 0.42,1.16 -0.72,0.02 0.67,0.83 0.5,-0.65 6.33,0.02 8.71,-0.19l2.49 8.17c0.02,0.06 0.04,0.14 0.06,0.2 0.02,0.07 0.04,0.14 0.06,0.2l0.37 1.44c-1.02,-0.02 -2.19,0.01 -3.18,-0.09 -2.91,-0.31 -0.69,-0.19 -2.78,0.33 -0.16,-1.48 -0.52,-2.83 -0.83,-4.2l-1.29 0.15 -0.05 -1.44 -3.69 0.12c-0.14,2.18 0.65,1.73 -0.58,3.15 -1.98,2.29 -0.71,1.16 -0.56,2.94 -1.35,-0.01 -2.53,0.31 -2.22,-1.08 0.61,-2.75 1.22,-1.79 1.54,-4.16 0.26,-1.94 1.29,-2.32 0.97,-3.71l-0.41 -0.8z"/>
   <path class="fil11" d="M138.39 190.9l-3.17 9.54 9.57 0.19c0.14,-1.65 -2.3,-8.14 -2.86,-10.28l-1.51 -4.72c-0.94,1.42 -1.4,4.59 -2.03,5.27z"/>
   <path class="fil11" d="M296.31 193.8l-1.77 5.43 -0.65 1.68 -0.72 2.44 9.69 0.19 -0.66 -2.82 -0.64 -1.51 -1.42 -5.36c-0.92,-1 -1.01,-4.02 -1.81,-5.33l-0.21 0.36c-0.75,1.46 -1.26,4.32 -1.81,4.92z"/>
   <path class="fil6" d="M198.44 204.94l-6.87 -0.16c0.62,2.18 -0.66,7.94 0.13,10.14 1.17,0.22 5.49,0.4 6.45,0.06 0.6,-1.34 0.59,-8.21 0.28,-10.04z"/>
   <path class="fil12" d="M250.09 193.02c1.44,-0.45 -0.28,0.11 2.53,0.22 0.85,0.04 1.93,0.09 2.64,-0.04 -0.04,1.73 0.16,0.46 -0.81,0.93 0.25,-0.33 0.54,-0.05 -0.19,-0.25 -0.29,-0.08 -0.25,-0.15 -0.81,-0.04 -0.02,0.32 -0.09,0.8 -0.06,1.12 0.04,0.42 0.08,1.07 0.68,1.23 0.02,0.01 0.1,-0 0.12,-0 0.33,-0.01 0.22,-0.13 0.23,-0.22l0.22 5.31c-0.15,1.15 0.31,0.74 -0.86,1l0.36 0.34c0.04,0.04 0.26,0.24 0.32,0.29 0.5,0.54 0.07,-0.85 0.5,0.95 0.01,0.06 0.03,0.14 0.04,0.2 0.01,0.06 0.02,0.14 0.03,0.2 0.1,0.72 0.12,0.12 0.02,0.7l-3.36 -0.05c-1.02,-0.12 -0.01,0.03 -0.45,-0.07 -0.08,-0.02 -0.15,-0.05 -0.22,-0.07 -0.07,-0.02 -0.16,-0.06 -0.22,-0.08 -0.06,-0.02 -0.15,-0.06 -0.22,-0.09 1.11,-5.5 0.12,-3.35 0.43,-6.32 0.15,-1.48 0.29,-1.57 0.05,-3.2 -0.26,-1.8 -0.3,-0.76 -0.83,-1.68 -0.02,-0.04 -0.06,-0.15 -0.08,-0.18 -0.02,-0.04 -0.04,-0.13 -0.07,-0.2zm-1.86 12.79l7.33 0.15c0.76,-0.11 0.31,0.1 0.62,-0.51 -1.33,-5.12 -0.78,-7.14 -0.41,-12.37 -0.05,-0.84 0.11,-0.27 -0.22,-0.72l-7.51 -0.11c-0.47,4.74 -1.05,9.01 0.19,13.55z"/>
   <path class="fil5" d="M301.56 199.21l0.64 1.51c0.7,0.38 0.03,-0.49 1.15,1.65 0.04,0.08 0.09,0.16 0.13,0.23 0.04,0.07 0.08,0.16 0.14,0.23 0.95,-3.65 -1.6,-4 0.34,-3.99 -0.02,1.3 0.42,3.69 0.97,4.37 0.9,-0.42 0.69,0.53 0.81,-1.28 -0.01,0.02 -0.9,-0.11 0.26,0.53 -0.34,0.86 -1.37,-0.26 -0.57,2.1 1.17,0.44 3.23,0.31 4.8,0.34 -0.16,-1.73 0.29,-1.55 -1.33,-1.64 -0.6,-0.03 -1.47,0.04 -2.14,0.01 1.5,-4.17 0.03,-3.06 0.62,-4.43 0.29,0.21 0.27,-0.06 0.65,1.11l0.15 0.75c-0.02,2.17 -0.63,-0.98 -0.87,2.05l1.32 0.27c0.02,-0 0.09,-0.04 0.11,-0.05l1.1 -0.18c-0.72,-1.16 -1.15,-3.17 -1.17,-4.65 0.14,-0.79 0.11,-0.56 -0.21,-1.33 -0.9,-0.28 -0.45,-0.1 -0.76,-0.68l-0.76 -2.22c-2.11,-0.31 -3.95,0.01 -6.25,-0.42 0.06,1.25 0.81,2.92 1.07,4.26 0,0.01 0.09,0.67 0.09,0.7l-0.28 0.76z"/>
   <path class="fil11" d="M201.16 188.01c-0.11,-1.41 0.88,-2.31 -0.76,-1.86 1.6,0.07 0.07,-0.02 1.03,-0.25 2.41,-0.57 5.22,0.36 7.44,0.7l0.4 0.07c0.5,1.82 -0,-0.2 -0.03,1.65 -0.03,1.6 -0.16,0.59 0.56,1.57l-0.69 2.62 -1.52 0.79c-2.09,0.71 -1.91,-0.21 -1.94,-0.22l-4.55 -0.54c0.01,-0.9 0.07,-1.74 -0.18,-2.53 -0.31,-0.98 -0.45,-0.61 -0.22,-1.87 0.47,0.57 2.16,0.32 2.94,0.34 1.21,0.03 2.21,0.05 3.43,0.04 -0.28,-0.77 0.88,-0.57 -2.62,-0.52 -1.13,0.02 -2.17,-0.05 -3.3,0.02zm-1.99 3.29l-0.08 3.96c3.42,-0.22 7.19,0.6 10.15,-0.68 1.11,-0.81 1.55,-1.27 1.69,-2.83l0.08 -2.92c-0.41,-2.51 -1.62,-3.2 -4.39,-3.48 -1.99,-0.2 -5.36,-0.26 -7.34,-0.14l-0.11 6.08z"/>
   <path class="fil0" d="M200.4 186.15c1.64,-0.45 0.65,0.45 0.76,1.86 1.13,-0.07 2.17,-0 3.3,-0.02 3.51,-0.05 2.35,-0.24 2.62,0.52 -1.22,0.01 -2.22,-0 -3.43,-0.04 -0.78,-0.02 -2.47,0.22 -2.94,-0.34 -0.23,1.26 -0.09,0.88 0.22,1.87 0.25,0.79 0.19,1.63 0.18,2.53l4.55 0.54c0.03,0.02 -0.15,0.93 1.94,0.22l1.52 -0.79 0.69 -2.62c-0.72,-0.98 -0.59,0.03 -0.56,-1.57 0.03,-1.85 0.53,0.18 0.03,-1.65l-0.4 -0.07c-2.22,-0.34 -5.03,-1.26 -7.44,-0.7 -0.96,0.23 0.57,0.31 -1.03,0.25z"/>
   <path class="fil13" d="M275.67 214.14c-1.68,1.39 -1.99,1.2 -2.96,1.89 -0.37,0.27 -0.21,0.11 -0.5,0.42 1.72,0.41 1.57,0.2 2.47,-0.51l1.68 -1.09c0.8,-0.26 0.53,-0.1 1.37,-0.17l0.47 -0.05c0.08,-0 0.15,-0.01 0.22,-0.01l1.73 0.28c0.94,1.12 -2.48,3.96 7.09,2.96 0.58,1.02 0.03,1.23 1.03,1.58 0.43,-0.78 0.17,-0.86 0.05,-1.73 0.04,-0.02 0.51,-0.28 0.52,-0.29 0,-0 0.9,0.14 0.38,-2.15 -0.51,0.5 -0.68,1.11 -0.96,1.8l-7.3 -0.08c0.07,-1.02 2.31,-7.17 2.95,-8.95 0.07,-0.2 0.13,-0.41 0.23,-0.59 0.3,-0.54 0.15,-0.35 0.53,-0.67l0.03 -0.32 0.42 -1.75c-1.08,0.1 -1.31,-0.14 -1.35,1.56 -0.25,-0.41 -0.2,-1.37 -0.24,-1.45 -0.67,0.26 -0.71,0.74 -0.78,1.09 -0.42,1.99 0.29,2 -0.65,2.49 -0.32,0.17 -0.11,0.16 -0.6,0 -0.91,-0.3 -0.39,-0.65 -1.19,-0.86 -0.69,1.21 0.11,0.94 0.2,1.08 0.28,0.45 0.49,-0.62 0.4,1.41 -2.18,-0.17 -0.56,-0.83 -2.33,-1.07l-0.29 0.87c0,0.04 0.02,0.13 0.03,0.17 0.01,0.04 0.05,0.12 0.06,0.16 0.26,0.65 0.46,0.11 0.54,1.03 -0.06,0.92 -0.54,-0.15 -1.68,2.57l-1.58 0.37z"/>
   <path class="fil8" d="M162.64 212.97c1.19,0.02 3.26,-0.21 3.91,0.38 -0.62,-0.01 -1.22,-0.03 -1.84,-0.05 -0.08,-0 -1.06,-0.02 -1.08,-0.02 -1.74,0.26 -0.55,-0.1 -1.12,0.52 0.89,0.74 0.77,0.47 3.49,0.52 0.65,0.01 0.72,-0.02 1.33,-0.11l1.31 -0.29c-0.22,-1.39 -1,-0.36 -1.06,-1.34l0.14 -7.76 -4.93 -0.05 -0.15 8.2z"/>
   <path class="fil14" d="M302.19 200.73l0.66 2.82 -9.69 -0.19 0.72 -2.44c-0.97,0.34 -1.48,0.67 -1.97,1.66 0.28,0.77 0.87,1.21 1.21,2.16 1.31,-1.1 0.56,-0.66 5.18,-0.57 1.04,0.02 2.05,0.04 3.09,0.1 0.77,0.05 0.5,0.18 1.23,-0.11 1.18,-0.47 -0.32,-0.25 1.24,-0.67 0.8,1.01 0.27,0.78 0.49,1.77l5.3 -0.07c1.31,0.31 0.57,-0.37 0.96,1.07 -1.91,0.24 -6.26,-0.26 -7.86,-0.11 -3.35,0.33 -4.72,0.41 -8.46,0.14 -0.75,-0.05 -1.59,-0.11 -2.34,-0.19 -1.53,-0.16 -1.72,0.01 -3.18,0.02 -0.31,-0.94 -0.24,-0.53 -0.11,-1.68 -1.82,-0 -0.82,0.3 -1.08,-0.71 -0.35,-1.34 1.58,-2.17 1.04,-4.08l-1.26 2.78c-0.03,0.05 -0.06,0.11 -0.09,0.16 -0.35,0.73 -0.64,1.71 -0.37,2.51 0.4,-0.3 -0.34,-0.39 0.62,-0.24 1.04,0.17 0.56,-0.28 0.97,0.71 -1.34,1.12 -0.81,0.02 -2.89,0.42 -0.05,-2.39 0.17,-0.42 -0.5,-1.28l-0.42 1.75 25.46 0.52c1.21,-0.01 1.06,0.26 1.34,-0.45 -0.37,-1.45 -0.86,-2.85 -1.3,-4.27 -0.24,-0.77 -0.44,-1.46 -0.64,-2.18l-0.89 -1.95c0.02,1.48 0.44,3.49 1.17,4.65l-1.1 0.18c-0.02,0.01 -0.08,0.04 -0.11,0.05l-1.32 -0.27c0.23,-3.03 0.84,0.12 0.87,-2.05l-0.15 -0.75c-0.38,-1.17 -0.36,-0.91 -0.65,-1.11 -0.59,1.38 0.88,0.26 -0.62,4.43 0.67,0.03 1.55,-0.05 2.14,-0.01 1.62,0.09 1.17,-0.08 1.33,1.64 -1.57,-0.03 -3.63,0.1 -4.8,-0.34 -0.8,-2.36 0.23,-1.24 0.57,-2.1 -1.15,-0.64 -0.27,-0.51 -0.26,-0.53 -0.12,1.81 0.09,0.86 -0.81,1.28 -0.56,-0.68 -0.99,-3.07 -0.97,-4.37 -1.94,-0.01 0.61,0.35 -0.34,3.99 -0.05,-0.07 -0.1,-0.16 -0.14,-0.23 -0.03,-0.06 -0.09,-0.15 -0.13,-0.23 -1.11,-2.14 -0.45,-1.27 -1.15,-1.65z"/>
   <path class="fil15" d="M209.43 212.26l-0.16 0.82c0,0 1.1,2.99 2.4,3.35l1.75 0.17c0.79,0.01 1.6,0.03 2.38,0.04 0.78,0 1.56,-0.09 2.29,-0.01 3.69,0.42 1.22,0.26 3.42,-0.8l2.34 0.15c0.05,-0.07 0.16,0.08 0.25,0.1l0.17 -6.19c-0.69,0.25 -0.3,-0.48 -0.86,0.82 -0.18,0.42 -0.14,0.85 -0.13,1.3 0.02,0.9 0.07,1.82 0.08,2.73l-0.37 -1.13c-0.07,-0.75 0.31,-2.27 0.04,-3.48 -0.55,0.17 -0.32,0.66 -0.38,1.51 -0.06,-0.07 -0.12,-0.16 -0.16,-0.22 -0.04,-0.06 -0.1,-0.14 -0.15,-0.21 -0.58,-0.81 -0.34,-0.68 -1.41,-1.34 -0.5,0.29 -0.09,0.04 -0.43,0.38l-0.6 0.63c-0.02,-1.19 0.31,-0.5 -1.08,-1.14 -0.73,0.53 -0.2,-0.1 -0.68,0.88 -1.41,-1.22 0.86,-0.87 -1.4,-0.98 0.52,1.72 3.27,4.67 3.5,6.25l-8.39 -0.22c-0.84,-1.09 -1.41,-2.64 -2.43,-3.39z"/>
   <path class="fil5" d="M250.09 193.02c0.02,0.07 0.05,0.16 0.07,0.2 0.02,0.04 0.05,0.14 0.08,0.18 0.53,0.92 0.56,-0.12 0.83,1.68 0.24,1.63 0.1,1.72 -0.05,3.2 -0.3,2.97 0.69,0.82 -0.43,6.32 0.07,0.04 0.16,0.07 0.22,0.09 0.06,0.02 0.15,0.06 0.22,0.08 0.07,0.02 0.14,0.05 0.22,0.07 0.44,0.1 -0.57,-0.05 0.45,0.07l3.36 0.05c0.1,-0.59 0.08,0.02 -0.02,-0.7 -0.01,-0.06 -0.02,-0.14 -0.03,-0.2 -0.01,-0.06 -0.03,-0.14 -0.04,-0.2 -0.43,-1.8 0,-0.4 -0.5,-0.95 -0.05,-0.06 -0.27,-0.25 -0.32,-0.29l-0.36 -0.34c1.17,-0.27 0.71,0.15 0.86,-1l-0.22 -5.31c-0.01,0.09 0.1,0.21 -0.23,0.22 -0.02,0 -0.1,0.01 -0.12,0 -0.6,-0.16 -0.64,-0.81 -0.68,-1.23 -0.03,-0.32 0.04,-0.8 0.06,-1.12 0.56,-0.11 0.52,-0.04 0.81,0.04 0.73,0.19 0.43,-0.09 0.19,0.25 0.97,-0.47 0.77,0.8 0.81,-0.93 -0.71,0.13 -1.79,0.08 -2.64,0.04 -2.82,-0.12 -1.09,-0.67 -2.53,-0.22z"/>
   <path class="fil16" d="M132.45 207.98l-2.07 6.29 -7.33 -0.2c0.01,-0.81 0.12,-0.92 0.37,-1.64 0.45,-1.26 0.2,-0.89 0.79,-1.5l0.42 -2.03c-0.19,-0.14 0.6,-0.11 -0.77,-0.15 -0.6,1.1 -0.55,0.98 -0.77,2.19 -0.29,1.63 -0.31,0.3 -0.76,2.11 -0.02,0.09 -0.02,0.15 -0.04,0.24 -0.26,1.18 0.23,0.75 -0.56,1.21 -0.68,0.39 -0.99,-0.11 -1.59,0.91 0.33,0.27 0.41,0.45 1.25,0.4 0.95,-0.05 0.85,-0.64 2.15,-0.59 0.87,0.03 -0.46,-0.08 0.52,0.09l0.52 0.18c-0,0.07 -0.04,0.16 -0.06,0.2 -0.02,0.04 -0.05,0.14 -0.07,0.18 -0.02,0.04 -0.06,0.12 -0.09,0.16l-0.51 0.41c1.68,0.07 3.6,-0.14 5.18,0.4l1.34 -1.25c1.2,0.71 0.23,0.92 1.56,1.06 0.44,-1.08 1,-6.86 1.05,-7.07 0.3,-1.21 0.41,-1.2 0.44,-2.64 -0.66,0.45 -0.72,-0.56 -0.98,1.04z"/>
   <path class="fil17" d="M162.79 204.77l4.93 0.05 -0.14 7.76c0.06,0.98 0.84,-0.05 1.06,1.34l-1.31 0.29c-0.61,0.09 -0.69,0.12 -1.33,0.11 -2.72,-0.05 -2.6,0.23 -3.49,-0.52 0.56,-0.63 -0.62,-0.26 1.12,-0.52 0.02,-0 0.99,0.02 1.08,0.02 0.62,0.02 1.22,0.04 1.84,0.05 -0.65,-0.59 -2.71,-0.36 -3.91,-0.38l0.15 -8.2zm-0.8 -0.5l-0.14 10.56 7.5 0.04 0.29 -14.98 13.5 0.18 -13.54 -0.16 -0.25 4.49 -7.37 -0.13z"/>
   <path class="fil18" d="M161.99 204.26l7.37 0.13 0.25 -4.49 13.54 0.16 0.08 -6.66 -13.48 -0.27c0.42,0.56 -0.06,0.26 0.85,0.49 0.19,0.05 0.57,0.05 0.78,0.05 4.61,-0 6.31,-0.06 11.26,0.34 -0.03,0.95 0.23,1.72 0.22,2.77 -0.01,0.94 -0.16,1.69 -0.16,2.71 -2.03,-0.22 -4.66,0.07 -6.92,0.03 -1.16,-0.02 -6.61,-0.74 -6.74,0.53 -0.14,1.28 0.36,1.58 -0.07,3.52 -8.33,0.66 -6.37,1.4 -6.24,-9.26 0.01,-1.07 -0.1,-2.13 0.28,-3.08l6.07 0.23c-0.01,0.94 0.04,1.08 0.52,1.66l-0.36 -2.24c-0.06,-0.01 -0.14,-0.04 -0.21,-0.05l-6.78 -0.08 -0.24 13.54z"/>
   <path class="fil18" d="M191.57 204.78l6.87 0.16 0.48 0.01 0.04 -3.13 3.88 0.08 0.35 0.91c0.86,0.62 0.87,1.77 1.94,2.27l8.31 0.11c-0.33,-0.97 -0.98,-2 -1.76,-2.55 -0.04,1.74 0.52,0.18 0.69,2.02 -1.26,0.09 -3.17,-0.1 -4.54,-0.13 -1.8,-0.04 -2.69,0.3 -3.46,-1.01 -1.2,-2.04 -0.87,-2.05 -3.6,-2.29 -2.85,-0.25 -0.55,-0.06 -2.22,0.18l-0.21 2.82 -6.2 -0.06c-0.33,-1.15 -0.17,-10.81 0.06,-12.26 0.66,-0.32 1.17,-0.15 3.2,-0.12 1.26,0.02 2,-0.17 3.16,0.25 -0.01,0.9 -0.33,2.71 0.51,3.22l0.08 -3.96 -0.05 0.01 -7.38 -0.16 -0.15 -0.04c0.01,2.77 -0.68,11.73 -0.02,13.67z"/>
   <path class="fil12" d="M210.93 191.76c-0.14,1.56 -0.58,2.01 -1.69,2.83 0.49,0.69 -1.26,0.53 1.15,0.58 1.4,-2.02 0.86,-1.99 1.37,-2.88 1.25,0.02 5.26,-0.29 6.06,0.38 -0.5,0.69 0.63,0.02 -1.44,0.54 -0.05,0.01 -0.12,0.02 -0.17,0.04l-1.05 0.69c-0.08,-0.04 -0.17,-0.22 -0.2,-0.16 -0.04,0.06 -0.15,-0.12 -0.19,-0.15 -0.67,-0.52 -0.21,-0.87 -2.5,-0.27 -0.02,0.94 -0.19,1.51 0.19,2.23 0.54,1.06 0.87,0.83 1.05,2.28 -0.08,0.06 -0.2,0.02 -0.26,0.15l-1.61 0.87c0.19,0 0.66,-0.01 0.82,0.01l0.92 0.21c0.06,0.02 0.15,0.05 0.22,0.08 -0.19,-0.38 -0.08,-0.74 0.24,-1.22l0.74 -0.9c1.93,-2.84 -0.18,-3.4 3.22,-3.34 -0.61,2.25 -0.98,1.21 -1.49,2.68 -0.7,2 0.11,0.66 -0.6,1.38l-1.16 0.63c-0.04,2.12 -0.1,0.25 0.49,0.94 2.04,-1.63 3.28,-4.07 3.64,-7.67l-0.05 -0c-2.12,-0.02 -6.16,-0.52 -7.7,0.09z"/>
   <path class="fil19" d="M289.19 214.81c1.26,-0.18 1.5,-1.99 1.58,-2.24 0.62,-1.87 1.04,-1.64 1.69,-1.6 1.15,0.07 0.09,-0.26 0.44,0.22l11.35 -0.58c-0.44,-0.4 -0.62,0.39 -0.72,0.52 -0.61,0.7 -0.62,0.66 -0.63,1.31 -0.57,-0.51 0.14,-0.33 0.71,-0.51l-0.1 2c0,-0 0.23,-0.04 0.28,-0.04 0.03,0 0.11,0 0.14,0.01l0.72 0.48c0.39,0.49 0.17,0.01 0.28,0.64 0.01,0.06 -0.05,0.41 -0.06,0.44 0.87,0.04 0.93,-0.07 1.8,0.28l-1.72 -5.77c-3.19,-0.3 -11.82,0.2 -14.02,-0.46l-1.74 5.32z"/>
   <path class="fil17" d="M285.23 213.34c0.02,0.01 0.57,0.72 0.03,0.13l2.07 -0.01c0.39,2.65 0.75,1.37 0.49,2.93l-3.74 -0.09c-0.1,-1.64 -0.02,0.1 0.07,-0.91 0.01,-0.11 0.05,-0.57 0.06,-0.7 0.1,-0.96 -0.05,-0.67 0.27,-1.5l0.45 0.06c0.04,0.01 0.14,0.03 0.17,0.04 0.03,0.01 0.11,0.04 0.13,0.05zm4 1.94l-0.04 -0.48 1.74 -5.32c-1.19,0.02 -0.76,-0.46 -1.15,0.85 -0.11,0.38 -0.41,2.65 -0.99,3.05l-0.34 0.13c-0,0 -0.54,-0.05 -0.6,-0.06 -0.65,-0.82 -0.41,1.02 -0.49,-1.33 -0.04,-1.37 0.02,-0.44 0.27,-0.78 -0.71,-0.02 -0.49,0.04 -1.04,1.05 -0.04,0.07 -0.12,0.29 -0.15,0.25 -0.03,-0.05 -0.09,0.18 -0.16,0.26 -1.06,-0.02 -1.07,-0.02 -1.84,-0.3 -0.25,0.44 -0.24,0.96 -1.35,1.56 0.08,-4.35 2.11,-4.47 1.57,-7.38 -0.37,0.32 -0.23,0.13 -0.53,0.67 -0.1,0.17 -0.16,0.39 -0.23,0.59 -0.64,1.78 -2.87,7.94 -2.95,8.95l7.3 0.08c0.28,-0.69 0.45,-1.3 0.96,-1.8z"/>
   <path class="fil20" d="M241.62 211.12c-0.07,1.36 0.11,3.48 -0.44,4.45 -1.52,0.7 -13.7,0.02 -16.39,-0.13l-0.09 -4.54c1.81,-0.01 3.95,-0.02 5.32,-0.46 -0.38,-1.09 -0.38,-3.13 -0.07,-4.55 1.56,-0.12 5.06,-0.14 6.51,0.25 0.17,1.35 0.14,2.85 -0.34,4.14 -0.12,0.34 -0.4,-0.05 -0.11,0.46 0.32,0.55 4.59,0.34 5.61,0.39zm-17.34 -1.24l-0.17 6.19 17.77 0.18c0.2,-1.37 0.37,-4.6 0.01,-5.87l-4.9 -0.18 0.09 -4.55 -0.25 -0.01 -7.42 -0.11 -0.14 4.47c-1.45,0.24 -3.77,0.31 -5,-0.12z"/>
   <path class="fil21" d="M198.92 204.95l-0.35 10.51c-1.32,0.18 -6.12,0.15 -7.41,-0.2l0.25 -10.56c-0.36,-0.85 0.4,-0.38 -0.62,-0.37l-0.15 10.67c0.01,0.05 0.05,0.23 0.06,0.2 0.01,-0.03 0.03,0.13 0.06,0.19 0.92,1.06 2.07,0.65 3.96,0.66 1.46,0 2.9,0.19 4.22,-0.01 0.76,-1.91 0.43,-8.88 0.48,-11.62 0.17,1.16 -0.13,0.37 0.52,0.69 0.04,-0.08 0.17,-0.23 0.21,-0.28 1.27,-1.81 -1.01,0.12 -0.3,-1.84 0.3,-0.83 2.09,-0.49 3.37,-0.19l-0.35 -0.91 -3.88 -0.08 -0.04 3.13z"/>
   <path class="fil18" d="M230.16 204.88c-0.36,-1.31 -0.11,-11.48 0.28,-12.33 1.22,-0.23 5.08,-0.21 6.11,0.2 0.29,1.43 0.22,10.65 -0.09,12.11l-6.3 0.02zm-0.74 0.66l7.42 0.11 0.2 -13.64 -7.37 -0.14 -0.25 13.66z"/>
   <path class="fil22" d="M211.01 188.85l-0.08 2.92c1.54,-0.6 5.58,-0.1 7.7,-0.09 -0.14,-0.43 -0.26,-0.5 -0.29,-0.56l-0.45 -2.33 -4.72 -0.21c0.03,1.54 0.68,0.05 0.73,2.14 -1.39,0.32 -0.72,0.31 -2.11,0.07 0.09,-1.86 0.2,-0.99 0.85,-2.03l-1 -0.34c0.08,2.76 0.45,1.96 -0.62,2.31l-0 -1.89z"/>
   <path class="fil22" d="M191.74 191.15l7.38 0.16 -0.38 -0.69c-1.02,-2.2 0.67,-5.11 -1.88,-4.17 0.17,0.87 0.14,0.23 0.53,0.8 0.23,0.33 0.47,0.45 0.2,1.08 -0.83,0.27 -4.54,-0.03 -5.22,-0.41 -0.03,2.22 3.06,0.17 5.73,1.22 -0.2,1.65 0.63,0.96 -0.79,1.45l-5.03 -0.5c-0.07,0.08 -0.17,0.07 -0.2,0.23 -0.03,0.16 -0.13,0.18 -0.16,0.25 -0.79,1.87 0.25,-0.93 -0.18,0.59z"/>
   <path class="fil23" d="M149.09 213.29c0.36,1.92 1.25,1.34 3.46,1.37 1.43,0.02 3.1,-0.12 4.42,0.19 0.03,-1.92 -1.56,-5.05 -1.93,-7.25 -1.01,1.07 0.21,1.79 -0.37,3.23 -0.31,0.76 -0.4,0.63 -0.51,2.03 -0.75,-0.01 -3.52,-0.39 -3.71,0.2l3.45 0.06c0.62,-1.44 0.66,-1.44 1.1,-1.57 1.25,-0.37 1.01,1.25 0.98,2.13 -0.95,0.65 -2.61,0.48 -3.69,0.47 -2.42,-0.02 -2.01,-0.34 -3.2,-0.86z"/>
   <path class="fil24" d="M287.6 198.04c0.94,0.18 0.61,0.65 1.32,-2.04 0.25,-0.95 0.58,-1.55 0.87,-2.47l5.84 0.18c0.2,1.64 -2.25,3.67 -1.1,5.53l1.77 -5.43 0.09 -0.7 -7.09 -0.04 -1.7 4.98z"/>
   <path class="fil8" d="M284.48 213.19c-0.32,0.83 -0.17,0.54 -0.27,1.5 -0.01,0.13 -0.05,0.59 -0.06,0.7 -0.09,1 -0.16,-0.74 -0.07,0.91l3.74 0.09c0.26,-1.57 -0.1,-0.29 -0.49,-2.93l-2.07 0.01c0.54,0.59 -0.01,-0.12 -0.03,-0.13 -0.02,-0.01 -0.1,-0.04 -0.13,-0.05 -0.04,-0.01 -0.13,-0.03 -0.17,-0.04l-0.45 -0.06z"/>
   <path class="fil20" d="M124.22 210.92c-0.6,0.61 -0.34,0.24 -0.79,1.5 -0.26,0.72 -0.36,0.83 -0.37,1.64l7.33 0.2 2.07 -6.29c0.32,-0.37 0.44,-0.95 0.59,-1.39 -0.69,0 -0.08,-0.52 -0.62,0.3l-2.3 6.54c-1.65,0.27 -4.57,0.64 -6.24,0.15 -0.13,-1.25 0.31,-1.35 0.33,-2.65z"/>
   <path class="fil25" d="M198.92 204.95l-0.48 -0.01c0.3,1.83 0.32,8.71 -0.28,10.04 -0.96,0.34 -5.28,0.16 -6.45,-0.06 -0.79,-2.2 0.48,-7.96 -0.13,-10.14l-0.17 -0.08 -0.25 10.56c1.29,0.35 6.09,0.38 7.41,0.2l0.35 -10.51z"/>
   <path class="fil24" d="M300.14 193.85l1.42 5.36 0.28 -0.76c0,-0.03 -0.09,-0.69 -0.09,-0.7 -0.26,-1.33 -1.01,-3.01 -1.07,-4.26 2.3,0.43 4.14,0.11 6.25,0.42l0.76 2.22c0.31,0.58 -0.14,0.4 0.76,0.68l-1.03 -3.38 -7.4 -0.26 0.11 0.68z"/>
   <path class="fil26" d="M91.62 151.85l0.07 -9.59 8.08 0.31c-1.03,-0.66 -6.93,-0.81 -8.28,-0.35l-0.26 8.59c0.09,1.6 -0.11,0.57 0.4,1.04z"/>
   <path class="fil27" d="M91.93 135.21l-0 -8.15 6.98 0.1c-1,-0.48 -2.3,-0.35 -3.57,-0.37 -1.17,-0.02 -2.47,-0.2 -3.56,0.11 -0.25,1.31 -0.15,2.76 -0.17,4.11l-0.1 3.18c0.1,1.59 -0.12,0.57 0.43,1.02z"/>
  </g>
 </g>
</svg>
